#!OML:ASF E:\VariousWalksJay\Project 1\Capture day 1\Session 1\Actor2.ASF
:FULLY-SPECIFIED
:DEGREES
807
root 4.23806 14.9684 -5.10713 11.6547 -29.2022 -16.4213
lowerback 20.7955 -4.31156 12.8208
upperback 11.7121 -3.69751 3.47462
thorax 0.87665 -1.53077 -2.71071
lowerneck 2.94098 -4.91063 -7.28071
upperneck -10.737 -6.15593 10.8012
head -3.06511 -3.3144 4.67548
rclavicle 2.74323e-014 4.57205e-014
rhumerus -63.5767 16.7588 -115.431
rradius 57.1844
rwrist 22.7665
rhand -8.24025 15.0958
rfingers 7.12502
rthumb 17.6777 -14.1206
lclavicle 2.74323e-014 4.57205e-014
lhumerus -62.9787 -26.7592 130.214
lradius 51.4491
lwrist -18.2871
lhand 20.9431 -25.27
lfingers 7.12502
lthumb 45.4126 -1.93486
rfemur -27.9646 -16.3988 23.669
rtibia 69.3294
rfoot -32.2278 -32.8584
rtoes 0.893643
lfemur -51.7087 8.25634 13.0982
ltibia 49.9097
lfoot -9.80328 -0.656105
ltoes -11.5506
808
root 4.27557 15.0372 -4.95438 12.1539 -28.698 -16.2045
lowerback 20.2456 -4.18276 12.5647
upperback 11.3351 -3.6038 3.362
thorax 0.730792 -1.49838 -2.73143
lowerneck 2.69113 -5.15494 -7.66667
upperneck -10.889 -6.39746 11.9272
head -2.9856 -3.47039 5.08359
rclavicle -7.67309e-014 -1.98785e-015
rhumerus -63.7406 16.75 -115.596
rradius 57.1752
rwrist 22.6618
rhand -7.67624 14.9653
rfingers 7.12502
rthumb 18.2203 -14.2013
lclavicle -7.67309e-014 -1.98785e-015
lhumerus -63.2329 -26.315 130.117
lradius 51.4793
lwrist -18.4309
lhand 21.2845 -25.02
lfingers 7.12502
lthumb 45.7297 -1.81376
rfemur -27.5818 -16.1051 23.2834
rtibia 68.0658
rfoot -31.6405 -33.2037
rtoes 1.11927
lfemur -51.209 7.39864 13.0438
ltibia 48.2573
lfoot -9.93639 -1.75049
ltoes -13.088
809
root 4.31457 15.109 -4.79752 12.6241 -28.216 -15.876
lowerback 19.6489 -4.04143 12.2348
upperback 10.9498 -3.51116 3.22171
thorax 0.603103 -1.46769 -2.74196
lowerneck 2.43949 -5.43121 -8.06132
upperneck -11.059 -6.68088 13.0723
head -2.89999 -3.64772 5.5002
rclavicle 5.96354e-014 -3.97569e-014
rhumerus -63.9197 16.7205 -115.751
rradius 57.1572
rwrist 22.6388
rhand -7.18893 14.8756
rfingers 7.12502
rthumb 18.6891 -14.2466
lclavicle 5.96354e-014 -3.97569e-014
lhumerus -63.4972 -25.8778 130.017
lradius 51.511
lwrist -18.6656
lhand 21.6056 -24.8206
lfingers 7.12502
lthumb 46.0278 -1.73768
rfemur -27.1778 -15.8149 22.7748
rtibia 66.7484
rfoot -31.0196 -33.5577
rtoes 1.36393
lfemur -51.0079 6.78118 12.6291
ltibia 47.0788
lfoot -10.0121 -2.87065
ltoes -14.3484
810
root 4.35504 15.1838 -4.63782 13.0821 -27.7662 -15.5243
lowerback 19.0514 -3.89156 11.8859
upperback 10.5614 -3.40869 3.07391
thorax 0.478684 -1.43264 -2.75022
lowerneck 2.19193 -5.73386 -8.47004
upperneck -11.2474 -6.99956 14.2319
head -2.80884 -3.8429 5.92483
rclavicle 1.90833e-014 -7.95139e-015
rhumerus -64.1154 16.6699 -115.894
rradius 57.1111
rwrist 22.7491
rhand -6.86244 14.8455
rfingers 7.12502
rthumb 19.0031 -14.2462
lclavicle 1.90833e-014 -7.95139e-015
lhumerus -63.7639 -25.4733 129.928
lradius 51.5382
lwrist -18.9968
lhand 21.8809 -24.682
lfingers 7.12502
lthumb 46.2831 -1.70631
rfemur -26.7154 -15.4941 22.2286
rtibia 65.347
rfoot -30.3769 -33.9275
rtoes 1.65056
lfemur -51.0549 6.3912 11.9836
ltibia 46.3485
lfoot -10.0546 -4.0019
ltoes -15.3407
811
root 4.39648 15.2618 -4.47484 13.5186 -27.3587 -15.2025
lowerback 18.472 -3.72845 11.5712
upperback 10.189 -3.28168 2.91817
thorax 0.37006 -1.38304 -2.78806
lowerneck 1.94819 -6.06836 -8.85934
upperneck -11.4611 -7.35965 15.3936
head -2.71407 -4.06012 6.34801
rclavicle -9.93923e-015 -6.36111e-015
rhumerus -64.2952 16.5675 -116.023
rradius 57.0379
rwrist 22.9667
rhand -6.67676 14.8899
rfingers 7.12502
rthumb 19.1817 -14.1842
lclavicle -9.93923e-015 -6.36111e-015
lhumerus -64.0529 -25.1714 129.873
lradius 51.5626
lwrist -19.3697
lhand 22.1072 -24.5936
lfingers 7.12502
lthumb 46.4928 -1.70717
rfemur -26.1377 -15.1321 21.686
rtibia 63.8306
rfoot -29.7171 -34.3098
rtoes 1.984
lfemur -51.2484 6.17463 11.2181
ltibia 45.975
lfoot -10.0774 -5.0657
ltoes -16.131
812
root 4.43795 15.3438 -4.30748 13.9038 -27.0111 -14.9202
lowerback 17.9245 -3.56153 11.2739
upperback 9.84265 -3.14445 2.76413
thorax 0.279513 -1.32702 -2.83256
lowerneck 1.727 -6.41384 -9.26112
upperneck -11.693 -7.73679 16.5454
head -2.61815 -4.28593 6.77172
rclavicle -3.65764e-014 -2.26615e-014
rhumerus -64.4917 16.4688 -116.152
rradius 56.9509
rwrist 23.266
rhand -6.60915 14.9711
rfingers 7.12502
rthumb 19.2467 -14.0965
lclavicle -3.65764e-014 -2.26615e-014
lhumerus -64.3308 -24.9262 129.851
lradius 51.5758
lwrist -19.7221
lhand 22.2967 -24.533
lfingers 7.12502
lthumb 46.6683 -1.72206
rfemur -25.3895 -14.7303 21.1418
rtibia 62.1763
rfoot -29.0367 -34.692
rtoes 2.36264
lfemur -51.4532 6.0636 10.4022
ltibia 45.8182
lfoot -10.084 -5.96117
ltoes -16.7994
813
root 4.47881 15.4289 -4.13645 14.2588 -26.7377 -14.7333
lowerback 17.4235 -3.38566 11.0265
upperback 9.52182 -2.98384 2.62323
thorax 0.19988 -1.25771 -2.8913
lowerneck 1.53092 -6.76936 -9.66332
upperneck -11.9324 -8.13133 17.6715
head -2.51932 -4.52029 7.1886
rclavicle -5.96354e-015 -1.51076e-014
rhumerus -64.689 16.3769 -116.288
rradius 56.8459
rwrist 23.6268
rhand -6.6287 15.0773
rfingers 7.12502
rthumb 19.2279 -13.9922
lclavicle -5.96354e-015 -1.51076e-014
lhumerus -64.6097 -24.753 129.878
lradius 51.5787
lwrist -19.9453
lhand 22.4754 -24.4601
lfingers 7.12502
lthumb 46.8337 -1.72095
rfemur -24.4731 -14.2535 20.6552
rtibia 60.376
rfoot -28.3502 -35.0787
rtoes 2.82539
lfemur -51.5656 6.02812 9.65126
ltibia 45.7339
lfoot -10.0626 -6.63951
ltoes -17.3102
814
root 4.51834 15.5169 -3.96054 14.5516 -26.5598 -14.6004
lowerback 16.9638 -3.19929 10.7853
upperback 9.23093 -2.80577 2.48507
thorax 0.137113 -1.17891 -2.95058
lowerneck 1.3566 -7.12788 -10.0478
upperneck -12.1617 -8.53672 18.74
head -2.41546 -4.75867 7.58449
rclavicle -5.28767e-014 8.18993e-014
rhumerus -64.8884 16.315 -116.443
rradius 56.7264
rwrist 24.0276
rhand -6.70532 15.209
rfingers 7.12502
rthumb 19.1542 -13.8677
lclavicle -5.28767e-014 8.18993e-014
lhumerus -64.8896 -24.6354 129.957
lradius 51.5694
lwrist -19.9298
lhand 22.6816 -24.3319
lfingers 7.12502
lthumb 47.0245 -1.67648
rfemur -23.3743 -13.7039 20.1725
rtibia 58.4331
rfoot -27.656 -35.4473
rtoes 3.41195
lfemur -51.4852 6.04337 8.94642
ltibia 45.6062
lfoot -10.009 -7.04552
ltoes -17.7733
815
root 4.5561 15.6068 -3.77947 14.7806 -26.4785 -14.4764
lowerback 16.5128 -3.00678 10.5131
upperback 8.96358 -2.62453 2.34184
thorax 0.0985495 -1.0983 -2.99661
lowerneck 1.187 -7.48502 -10.4014
upperneck -12.3512 -8.95064 19.7251
head -2.29826 -4.99757 7.94642
rclavicle -8.78628e-014 -7.15625e-015
rhumerus -65.0877 16.3084 -116.633
rradius 56.6017
rwrist 24.4051
rhand -6.75763 15.333
rfingers 7.12502
rthumb 19.1039 -13.7488
lclavicle -8.78628e-014 -7.15625e-015
lhumerus -65.1727 -24.5495 130.087
lradius 51.5466
lwrist -19.6127
lhand 22.9296 -24.1194
lfingers 7.12502
lthumb 47.2538 -1.56578
rfemur -22.1214 -13.0966 19.652
rtibia 56.3636
rfoot -26.974 -35.7617
rtoes 4.21066
lfemur -51.1924 6.14242 8.22318
ltibia 45.373
lfoot -9.88895 -7.17648
ltoes -18.1892
